<?xml version="1.0" standalone="no"?><!DOCTYPE svg PUBLIC "-//W3C//DTD SVG 1.1//EN" "http://www.w3.org/Graphics/SVG/1.1/DTD/svg11.dtd"><svg t="1548832107170" class="icon" style="" viewBox="0 0 1024 1024" version="1.1" xmlns="http://www.w3.org/2000/svg" p-id="15828" xmlns:xlink="http://www.w3.org/1999/xlink" width="200" height="200"><defs><style type="text/css"></style></defs><path d="M576 137.6c19.2 0 32 12.8 32 32l0 576c0 19.2-12.8 32-32 32L64 777.6c-19.2 0-32-12.8-32-32l0-576c0-19.2 12.8-32 32-32L576 137.6M576 105.6 64 105.6c-35.2 0-64 28.8-64 64l0 576c0 35.2 28.8 64 64 64l512 0c35.2 0 64-28.8 64-64l0-576C640 134.4 611.2 105.6 576 105.6L576 105.6z" p-id="15829"></path><path d="M944 915.2 550.4 915.2c-44.8 0-80-35.2-80-80 0-9.6 6.4-16 16-16s16 6.4 16 16c0 25.6 22.4 48 48 48l393.6 0c25.6 0 48-22.4 48-48l0-512c0-25.6-22.4-48-48-48l-281.6 0c-9.6 0-16-6.4-16-16s6.4-16 16-16l281.6 0c44.8 0 80 35.2 80 80l0 512C1024 880 988.8 915.2 944 915.2z" p-id="15830"></path><path d="M217.6 377.6l-32 0c-25.6 0-48-22.4-48-48l0-32c0-25.6 22.4-48 48-48l32 0c25.6 0 48 22.4 48 48l0 32C265.6 355.2 243.2 377.6 217.6 377.6zM185.6 281.6c-9.6 0-16 6.4-16 16l0 32c0 9.6 6.4 16 16 16l32 0c9.6 0 16-6.4 16-16l0-32c0-9.6-6.4-16-16-16L185.6 281.6z" p-id="15831"></path><path d="M249.6 524.8c-38.4 0-76.8-9.6-112-28.8C128 492.8 124.8 483.2 128 476.8c3.2-6.4 12.8-9.6 22.4-6.4 44.8 22.4 86.4 28.8 128 22.4 19.2-3.2 35.2-9.6 51.2-16 22.4-9.6 44.8-16 76.8-19.2 48-3.2 99.2 19.2 121.6 41.6 6.4 6.4 6.4 16 0 22.4s-16 6.4-22.4 0c-12.8-16-54.4-32-96-32-28.8 3.2-48 9.6-70.4 16-16 6.4-35.2 12.8-57.6 16C272 524.8 262.4 524.8 249.6 524.8z" p-id="15832"></path><path d="M249.6 684.8c-38.4 0-76.8-9.6-112-28.8-6.4-3.2-9.6-12.8-6.4-22.4 3.2-6.4 12.8-9.6 22.4-6.4 44.8 22.4 86.4 28.8 128 22.4 19.2-3.2 35.2-9.6 51.2-16 22.4-9.6 44.8-16 76.8-19.2 48-3.2 99.2 19.2 121.6 41.6 6.4 6.4 6.4 16 0 22.4-6.4 6.4-16 6.4-22.4 0-12.8-16-54.4-35.2-96-32-28.8 3.2-48 9.6-70.4 16-16 6.4-35.2 12.8-57.6 16C272 684.8 262.4 684.8 249.6 684.8z" p-id="15833"></path></svg>