<?xml version="1.0" standalone="no"?><!DOCTYPE svg PUBLIC "-//W3C//DTD SVG 1.1//EN" "http://www.w3.org/Graphics/SVG/1.1/DTD/svg11.dtd"><svg t="1545960265643" class="icon" style="" viewBox="0 0 1024 1024" version="1.1" xmlns="http://www.w3.org/2000/svg" p-id="4784" xmlns:xlink="http://www.w3.org/1999/xlink" width="200" height="200"><defs><style type="text/css"></style></defs><path d="M728.472907 833.364839c-4.658678 0-9.187323-1.263474-13.099589-3.65527L510.557346 706.192138 305.691203 829.740285c-8.700977 5.205433-19.602285 4.761067-27.813845-1.103748l-0.130034-0.094198a25.240821 25.240821 0 0 1-9.705409-26.144912l54.195274-233.03118-180.810981-156.652407a25.236725 25.236725 0 0 1-7.48153-26.904635c3.165853-9.703361 11.759323-16.511175 21.899883-17.358951l238.329787-20.463373 93.130562-220.381077a25.181436 25.181436 0 0 1 23.257555-15.428928 25.197818 25.197818 0 0 1 23.261651 15.439167l93.126466 220.371862 238.360503 20.466444c10.101653 0.844705 18.694098 7.648423 21.859952 17.332331l0.008191 0.024573a25.228534 25.228534 0 0 1-7.478458 26.898492L698.885693 569.365223l54.198346 233.046539a25.266418 25.266418 0 0 1-9.722815 26.137744l-0.098293 0.070649c-4.322844 3.105444-9.438175 4.744685-14.790024 4.744684zM510.557346 673.639752l213.969507 129.037196-56.598333-243.370374 188.83517-163.608684-248.947477-21.375654-97.253748-230.139728-97.253748 230.139728-248.951573 21.375654 188.839266 163.60766-56.598333 243.365255 213.959269-129.031053z" fill="#F39E15" p-id="4785"></path></svg>