<?xml version="1.0" standalone="no"?><!DOCTYPE svg PUBLIC "-//W3C//DTD SVG 1.1//EN" "http://www.w3.org/Graphics/SVG/1.1/DTD/svg11.dtd"><svg t="1545960882264" class="icon" style="" viewBox="0 0 1024 1024" version="1.1" xmlns="http://www.w3.org/2000/svg" p-id="9679" xmlns:xlink="http://www.w3.org/1999/xlink" width="200" height="200"><defs><style type="text/css"></style></defs><path d="M711.4 925c-0.7 0-1.4 0-2.1-0.1-11.8-0.8-21.7-8.7-25.1-20l-62.9-208.8H110.6c-33.8 0-61.3-27.5-61.3-61.3V143.4c0-33.8 27.5-61.3 61.3-61.3H899c33.8 0 61.3 27.5 61.3 61.3v491.4c0 33.8-27.5 61.3-61.3 61.3h-63.8L737 908.6c-4.7 10.1-14.6 16.4-25.6 16.4zM110.6 114.4c-16 0-29 13-29 29v491.4c0 16 13 29 29 29h522.7c7.1 0 13.4 4.7 15.5 11.5l63.3 210.1 98.2-212.2c2.7-5.7 8.4-9.4 14.7-9.4h74c16 0 29-13 29-29V143.4c0-16-13-29-29-29H110.6z" fill="#E86262" p-id="9680"></path><path d="M504.9 460.1c-5.8 0-11.7-0.7-17.4-2.2-18.4-4.6-33.9-16.1-43.7-32.4-9.8-16.3-12.6-35.4-7.9-53.8 4.6-18.4 16.1-33.9 32.4-43.7 16.3-9.7 35.4-12.5 53.8-7.9s33.9 16.1 43.7 32.4c9.8 16.3 12.6 35.4 7.9 53.8-4.6 18.4-16.1 33.9-32.4 43.6-11.2 6.8-23.7 10.2-36.4 10.2z m-0.2-109.8c-6.9 0-13.7 1.9-19.8 5.5-8.9 5.3-15.2 13.8-17.7 23.8s-1 20.4 4.3 29.3c5.3 8.9 13.8 15.2 23.8 17.7 10.1 2.6 20.4 1 29.3-4.3 8.9-5.3 15.2-13.8 17.7-23.8s1-20.4-4.3-29.3c-5.3-8.9-13.8-15.2-23.8-17.7-3.1-0.8-6.3-1.2-9.5-1.2z m-53.1 25.4h0.2-0.2zM262.5 460.1c-5.8 0-11.7-0.7-17.4-2.2-18.4-4.6-33.9-16.1-43.7-32.4-9.8-16.3-12.6-35.4-7.9-53.8 4.6-18.4 16.1-33.9 32.4-43.7 16.3-9.7 35.4-12.5 53.8-7.9s33.9 16.1 43.7 32.4c9.8 16.3 12.6 35.4 7.9 53.8-4.6 18.4-16.1 33.9-32.4 43.6-11.2 6.8-23.7 10.2-36.4 10.2z m-0.2-109.8c-6.9 0-13.7 1.9-19.8 5.5-8.9 5.3-15.2 13.8-17.7 23.8s-1 20.4 4.3 29.3c5.3 8.9 13.8 15.2 23.8 17.7 10.1 2.6 20.4 1 29.3-4.3 8.9-5.3 15.2-13.8 17.7-23.8s1-20.4-4.3-29.3c-5.3-8.9-13.8-15.2-23.8-17.7-3.1-0.8-6.3-1.2-9.5-1.2z m-53.1 25.4h0.2-0.2zM747.1 460.1c-15 0-30.1-4.7-42.9-14.5-31.2-23.7-37.3-68.4-13.6-99.6 23.7-31.2 68.4-37.2 99.5-13.5 31.2 23.7 37.3 68.4 13.6 99.5-13.9 18.4-35.1 28.1-56.6 28.1z m-30.7-94.5c-12.9 17-9.6 41.3 7.4 54.3s41.3 9.6 54.3-7.4c12.9-17 9.6-41.3-7.4-54.3-17-12.8-41.4-9.6-54.3 7.4z" fill="#E86262" p-id="9681"></path></svg>