<?xml version="1.0" standalone="no"?><!DOCTYPE svg PUBLIC "-//W3C//DTD SVG 1.1//EN" "http://www.w3.org/Graphics/SVG/1.1/DTD/svg11.dtd"><svg t="1546340569828" class="icon" style="" viewBox="0 0 1646 1024" version="1.1" xmlns="http://www.w3.org/2000/svg" p-id="2860" xmlns:xlink="http://www.w3.org/1999/xlink" width="321.484375" height="200"><defs><style type="text/css"></style></defs><path d="M1547.692039 481.065981C1364.112875 253.731395 1099.456617 123.327794 821.613479 123.327794c-277.559974 0-542.02526 130.179704-725.640643 357.165274A31.875704 31.875704 0 0 0 88.900322 500.505518v40.943537a31.872412 31.872412 0 0 0 7.108733 20.048668c183.552823 226.952643 448.04445 357.129055 725.604424 357.129055 277.843138 0 542.463177-130.400309 726.07856-357.734894a31.813145 31.813145 0 0 0 7.072514-20.01245v-39.77137a31.826315 31.826315 0 0 0-7.072514-20.042083z m-56.659139 48.430919c-171.126534 206.950071-414.459884 325.394932-669.419421 325.394933-254.682958 0-497.89119-118.260476-668.981505-324.818727v-18.194932c171.087023-206.554958 414.298547-324.815434 668.981505-324.815434 254.929904 0 498.292887 118.448154 669.419421 325.388347v17.045813z m0 0" fill="#FF962F" p-id="2861"></path><path d="M821.837376 275.712823c-135.210804 0-245.21672 110.005916-245.21672 245.249646 0 135.204219 110.005916 245.210135 245.21672 245.210136 37.150457 0 72.875215-8.093222 106.114058-24.059062 15.873646-7.615794 22.564219-26.640463 14.915498-42.514109-7.619087-15.863768-26.709608-22.491781-42.510816-14.908913-24.569415 11.794109-50.982688 17.783357-78.489106 17.783357-100.091884 0-181.478482-81.422817-181.478483-181.481775 0-100.058958 81.419524-181.511408 181.478483-181.511408 100.065543 0 181.481775 81.416232 181.481775 181.511408 0 17.019473-2.36409 33.844682-6.983615 50.031125-4.843421 16.923987 4.942199 34.542714 21.866187 39.415769 16.858135 4.81708 34.542714-4.935614 39.415768-21.859602a244.703074 244.703074 0 0 0 9.436605-67.587292c-0.039511-135.237145-110.03555-245.27928-245.246354-245.27928z m0 0" fill="#FF962F" p-id="2862"></path><path d="M706.504026 476.472797a123.20926 123.20926 0 0 0-8.244682 44.489672 15.936206 15.936206 0 0 0 31.865826 0c0-11.379241 2.041415-22.498367 6.114367-33.018237 13.575408-35.11892 47.956785-58.693968 85.597839-58.693968a15.936206 15.936206 0 0 0 0-31.865827c-50.702817 0-97.03964 31.770341-115.33335 79.08836z m0 0" fill="#FF962F" p-id="2863"></path></svg>