<?xml version="1.0" standalone="no"?><!DOCTYPE svg PUBLIC "-//W3C//DTD SVG 1.1//EN" "http://www.w3.org/Graphics/SVG/1.1/DTD/svg11.dtd"><svg t="1550403770325" class="icon" style="" viewBox="0 0 1024 1024" version="1.1" xmlns="http://www.w3.org/2000/svg" p-id="7401" xmlns:xlink="http://www.w3.org/1999/xlink" width="200" height="200"><defs><style type="text/css"></style></defs><path d="M574.1 405.4c-16.6 0-30.1 12.1-30.1 27v102.5c0 14.9 13.5 27 30.1 27s30.1-12.1 30.1-27V432.4c0-14.9-13.4-27-30.1-27z" fill="#FD5F29" p-id="7402"></path><path d="M818.3 756.5l-15.7-16.7c-3.7-6.4-34.4-65.5-34.4-264.4 0-120.3-83.3-221.4-195.1-249 1.3-5 2-10.2 2-15.7 0-34.8-28.2-63.1-63.1-63.1-34.8 0-63.1 28.2-63.1 63.1 0 5.5 0.8 10.7 2.1 15.8-111.9 28.4-195.5 133-195.8 253.4-0.4 178.9-25.9 242.8-33 257.1-0.8 1.7-1.9 3.2-3.2 4.6l-13.3 14.1c-11.6 12.2-2.9 32.4 14 32.4h206.9c0 0.9-0.1 1.7-0.1 2.6 0 47.3 38.3 85.6 85.6 85.6s85.6-38.3 85.6-85.6c0-0.9-0.1-1.7-0.1-2.6h181.1l25.2 0.7c17 0.5 26.2-19.9 14.4-32.3zM289.8 728c12.6-42.9 25.6-119.4 25.6-252.6 0-108.2 88-196.2 196.2-196.2S708 367.2 708 475.4c0 133.1 13.1 209.7 25.6 252.6H289.8z" fill="#FD5F29" p-id="7403"></path><path d="M574.1 616.1m-30.1 0a30.1 30.1 0 1 0 60.2 0 30.1 30.1 0 1 0-60.2 0Z" fill="#FD5F29" p-id="7404"></path></svg>