<?xml version="1.0" standalone="no"?><!DOCTYPE svg PUBLIC "-//W3C//DTD SVG 1.1//EN" "http://www.w3.org/Graphics/SVG/1.1/DTD/svg11.dtd"><svg t="1545958581566" class="icon" style="" viewBox="0 0 1024 1024" version="1.1" xmlns="http://www.w3.org/2000/svg" p-id="4061" xmlns:xlink="http://www.w3.org/1999/xlink" width="200" height="200"><defs><style type="text/css"></style></defs><path d="M848.03584 438.87104a95.52896 95.52896 0 0 0-75.24352-36.352H604.8768c9.16992-25.56928 15.23712-53.35552 17.39264-80.24064 3.35872-41.80992-3.072-78.94528-18.5856-107.392-19.09248-34.9952-51.59424-56.82176-94.0032-63.12448-19.21024-2.85696-35.73248 0.83968-49.11104 10.97216-27.04384 20.48512-32.00512 59.47904-37.76 104.62208-4.59264 36.09088-9.8048 76.99456-27.30496 106.3168-11.68384 19.56864-34.41664 45.58336-96.74752 45.58336H233.71264c-43.3152 0-78.55616 35.2256-78.55616 78.52544v296.87808c0 43.29472 35.24096 78.52544 78.55616 78.52544h473.87648c21.5808 0 42.76736-7.37792 59.66336-20.78208s28.91264-32.34304 33.82784-53.34528l65.19808-278.71232a95.4112 95.4112 0 0 0-18.24256-81.47456zM207.5136 794.65472V497.77664a26.2144 26.2144 0 0 1 26.19392-26.16832h55.1936v349.2096h-55.1936a26.2144 26.2144 0 0 1-26.19392-26.1632z m607.78496-286.2336l-65.2032 278.71744a43.45856 43.45856 0 0 1-42.50624 33.68448H341.26336V467.8144c44.2368-8.44288 77.51168-30.96576 99.2-67.30752 23.10656-38.70208 29.04576-85.36576 34.28864-126.53568 2.36544-18.60608 4.60288-36.1728 8.15616-49.65376 3.8144-14.45888 7.7568-18.69312 9.27744-19.84512 1.73568-1.31584 5.02784-1.62816 9.79968-0.91648 26.26048 3.90144 44.4928 15.81056 55.72608 36.40832 23.05024 42.25024 12.86656 113.56672-9.09824 162.17088a37.23264 37.23264 0 0 0 2.62656 35.68128 37.1968 37.1968 0 0 0 31.39072 17.07008h190.16192a43.43296 43.43296 0 0 1 34.21696 16.53248 43.32032 43.32032 0 0 1 8.28928 37.00224z" fill="#FF962F" p-id="4062"></path></svg>