<?xml version="1.0" standalone="no"?><!DOCTYPE svg PUBLIC "-//W3C//DTD SVG 1.1//EN" "http://www.w3.org/Graphics/SVG/1.1/DTD/svg11.dtd"><svg t="1548831902652" class="icon" style="" viewBox="0 0 1024 1024" version="1.1" xmlns="http://www.w3.org/2000/svg" p-id="14829" xmlns:xlink="http://www.w3.org/1999/xlink" width="200" height="200"><defs><style type="text/css"></style></defs><path d="M976.406551 95.968418 567.040364 95.968418c-26.250481 0-47.602014 21.351533-47.602014 47.595591l0 211.228584c0 26.246199 21.355815 47.597732 47.602014 47.597732l35.94346 0 0 83.849517c0 5.796089 3.383015 11.059032 8.656663 13.472107 1.969857 0.899282 4.070323 1.3425 6.155802 1.3425 3.492213 0 6.945886-1.233302 9.684415-3.607835l110.018635-95.05843 238.900788 0c26.250481 0 47.597732-21.353674 47.597732-47.597732L1023.997859 143.564009C1024.004282 117.31781 1002.650608 95.968418 976.406551 95.968418zM685.000519 240.348204l-21.858985 21.310851 5.160168 30.091701c0.37256 2.173266-0.518158 4.363661-2.303876 5.659056-1.004199 0.732273-2.19896 1.104833-3.400144 1.104833-0.916412 0-1.843529-0.220538-2.689283-0.663756l-27.023436-14.20652-27.019153 14.20652c-1.952727 1.023469-4.316555 0.852177-6.097991-0.441077s-2.672153-3.48579-2.299594-5.659056l5.160168-30.091701-21.863268-21.310851c-1.571603-1.537345-2.145431-3.836938-1.466687-5.92884 0.678744-2.094043 2.492297-3.620682 4.674127-3.937572l30.211606-4.389354 13.510647-27.376725c0.978505-1.97628 2.989043-3.226711 5.190144-3.226711s4.215921 1.250431 5.185862 3.226711l13.514929 27.376725 30.205182 4.389354c2.183971 0.31689 3.98896 1.843529 4.676268 3.937572C687.145949 236.511266 686.576404 238.813001 685.000519 240.348204zM823.841154 240.348204l-21.863268 21.310851 5.16445 30.091701c0.368278 2.173266-0.52244 4.363661-2.303876 5.659056-1.004199 0.732273-2.194677 1.104833-3.400144 1.104833-0.920694 0-1.839247-0.220538-2.697847-0.663756l-27.019153-14.20652-27.019153 14.20652c-1.952727 1.023469-4.312273 0.852177-6.093709-0.441077-1.785718-1.293254-2.676436-3.48579-2.303876-5.659056l5.160168-30.091701-21.858985-21.310851c-1.571603-1.537345-2.145431-3.836938-1.464546-5.92884 0.676603-2.094043 2.483732-3.620682 4.671986-3.937572l30.209465-4.389354 13.512788-27.376725c0.974223-1.97628 2.989043-3.226711 5.185862-3.226711 2.203242 0 4.211639 1.250431 5.185862 3.226711l13.514929 27.376725 30.209465 4.389354c2.186113 0.31689 3.98896 1.843529 4.671986 3.937572C825.986584 236.511266 825.412757 238.813001 823.841154 240.348204zM962.675365 240.348204l-21.863268 21.310851 5.155886 30.091701c0.376842 2.173266-0.509593 4.363661-2.295311 5.659056-1.008481 0.732273-2.19896 1.104833-3.404426 1.104833-0.920694 0-1.839247-0.220538-2.693565-0.663756l-27.023436-14.20652-27.023436 14.20652c-1.944163 1.023469-4.307991 0.852177-6.089426-0.441077-1.785718-1.293254-2.672153-3.48579-2.303876-5.659056l5.16445-30.091701-21.863268-21.310851c-1.571603-1.537345-2.141149-3.836938-1.464546-5.92884 0.676603-2.094043 2.492297-3.620682 4.671986-3.937572l30.213747-4.389354 13.512788-27.376725c0.96994-1.97628 2.986902-3.226711 5.181579-3.226711 2.19896 0 4.220204 1.250431 5.194426 3.226711L929.25846 226.092437l30.209465 4.389354c2.179689 0.31689 3.984677 1.843529 4.671986 3.937572C964.820796 236.511266 964.253392 238.813001 962.675365 240.348204z" p-id="14830"></path><path d="M327.261705 241.787056c-100.120105 0-155.530888 51.88217-154.518124 151.852395 1.468828 136.920025 59.650257 219.9816 154.518124 218.532042 0 0 154.443184 6.260718 154.443184-218.532042C481.70489 293.669226 429.5251 241.787056 327.261705 241.787056z" p-id="14831"></path><path d="M600.437999 716.094277l-154.321139-61.528044-36.136164-30.453555c-9.543099-8.063565-23.640421-7.468326-32.498352 1.329653l-50.237768 49.965842-50.387648-49.978689c-8.857931-8.787274-22.938124-9.354678-32.468376-1.316806l-36.144728 30.453555-154.321139 61.534467C4.228768 735.891337 4.271591 911.880899 0 928.031582l654.433482 0C650.172597 911.915157 650.151185 735.867784 600.437999 716.094277z" p-id="14832"></path></svg>