<?xml version="1.0" standalone="no"?><!DOCTYPE svg PUBLIC "-//W3C//DTD SVG 1.1//EN" "http://www.w3.org/Graphics/SVG/1.1/DTD/svg11.dtd"><svg t="1545985411602" class="icon" style="" viewBox="0 0 1024 1024" version="1.1" xmlns="http://www.w3.org/2000/svg" p-id="20427" xmlns:xlink="http://www.w3.org/1999/xlink" width="200" height="200"><defs><style type="text/css"></style></defs><path d="M1002.303303 895.951287h-127.90299v127.923808h-85.35193v-127.882173h-127.90299v-85.35193h127.90299v-127.882173h85.35193v127.882173h127.90299v85.35193zM743.832677 638.542356l2.664646 42.63433h-16.52913a382.001932 382.001932 0 0 0-213.400643-83.624075c-8.431105 0.707796-16.903846 1.290688-25.522309 1.290688-8.972361 0-17.799-0.562074-26.563186-1.332323A384.166957 384.166957 0 0 0 115.330207 895.951287h501.70281v83.582439H21.651259a468.665368 468.665368 0 0 1 298.086412-434.732771 299.335465 299.335465 0 1 1 342.302876 0.187358 470.476494 470.476494 0 0 1 148.200096 93.554043h-66.407966z m-38.179375-338.888799a214.420703 214.420703 0 1 0-214.524791 214.420703 214.420703 214.420703 0 0 0 214.524791-214.420703z" fill="#338CFA" p-id="20428"></path></svg>